<?xml version="1.0" standalone="no"?>
<!DOCTYPE svg PUBLIC "-//W3C//DTD SVG 20010904//EN"
 "http://www.w3.org/TR/2001/REC-SVG-20010904/DTD/svg10.dtd">
<svg version="1.0" xmlns="http://www.w3.org/2000/svg"
 width="225.000000pt" height="225.000000pt" viewBox="0 0 225.000000 225.000000"
 preserveAspectRatio="xMidYMid meet">

<g transform="translate(0.000000,225.000000) scale(0.100000,-0.100000)"
fill="#000000" stroke="none">
<path d="M978 1963 c12 -2 30 -2 40 0 9 3 -1 5 -23 4 -22 0 -30 -2 -17 -4z"/>
<path d="M1232 1956 c10 -10 18 -11 33 -4 31 17 31 18 -9 18 -31 0 -35 -2 -24
-14z"/>
<path d="M670 1912 c0 -6 -3 -11 -7 -11 -22 4 -25 -2 -8 -15 16 -12 17 -16 6
-30 -14 -17 -7 -91 10 -102 5 -3 9 -15 10 -27 0 -12 3 -17 5 -10 3 6 -2 32
-10 57 -16 46 -12 92 5 64 6 -9 11 -10 19 -2 8 8 6 22 -9 50 -12 21 -21 33
-21 26z"/>
<path d="M1561 1888 c-6 -16 -9 -34 -6 -38 3 -4 -2 -11 -11 -14 -12 -5 -15 -2
-10 10 4 9 1 14 -6 12 -6 -2 -12 -16 -12 -30 -1 -15 2 -24 6 -22 4 3 8 0 8 -5
0 -6 -6 -11 -13 -11 -7 0 -26 -25 -42 -55 -28 -52 -32 -55 -68 -55 -37 0 -38
0 -23 22 9 12 16 33 16 46 0 22 -3 24 -32 19 -22 -3 -39 1 -51 11 -17 16 -20
15 -33 -3 -17 -23 -19 -59 -3 -49 7 4 9 0 5 -14 -6 -17 -3 -19 12 -15 11 2 23
0 26 -6 5 -7 -7 -11 -33 -11 -31 0 -41 4 -41 16 0 12 -4 14 -12 7 -19 -15
-114 -21 -183 -13 -33 4 -61 3 -63 -2 -2 -4 -48 -8 -103 -8 -74 0 -98 3 -97
13 2 6 -3 11 -11 9 -9 -2 -11 3 -7 13 4 11 2 14 -6 9 -8 -5 -9 -2 -5 10 4 10
1 19 -8 22 -8 4 -12 11 -8 17 4 6 1 7 -7 2 -10 -6 -12 -4 -7 7 6 18 -17 57
-28 46 -11 -10 65 -139 77 -131 7 3 8 1 4 -5 -4 -7 -14 -12 -22 -12 -12 0 -14
-40 -14 -256 0 -240 -1 -256 -17 -249 -77 29 -175 26 -181 -6 -2 -13 8 -15 55
-11 73 4 137 -16 141 -46 4 -26 6 -26 -48 -7 -61 21 -120 20 -120 -2 0 -14 10
-18 44 -20 25 -1 63 -11 85 -23 41 -20 41 -21 41 -78 0 -31 5 -73 10 -92 12
-45 63 -94 113 -110 20 -6 37 -15 37 -18 0 -4 -12 -25 -25 -47 -25 -40 -32
-65 -17 -65 4 0 22 27 40 60 l33 60 182 0 182 0 34 -60 c19 -33 39 -60 43 -60
13 0 10 11 -22 66 l-30 53 39 11 c85 23 121 75 128 191 l6 78 39 16 c22 9 60
18 84 22 28 3 44 11 44 19 0 19 -72 18 -125 -1 -22 -8 -41 -15 -42 -15 -2 0
-3 9 -3 20 0 28 41 43 125 46 48 2 70 6 70 15 0 28 -105 33 -172 8 -20 -7 -23
-5 -23 16 0 26 -15 41 -24 26 -4 -5 -2 -12 4 -16 13 -8 13 -35 0 -35 -5 0 -10
8 -11 18 0 14 -2 14 -9 -3 -13 -31 -12 -37 10 -30 15 5 20 2 20 -10 0 -11 -5
-15 -15 -11 -19 7 -45 -3 -45 -16 0 -6 6 -5 15 2 21 18 44 -3 43 -41 -1 -37
-22 -56 -43 -39 -13 11 -15 5 -15 -47 0 -33 -5 -75 -11 -93 -19 -54 -48 -60
-305 -60 l-226 0 -34 34 -34 34 0 178 c0 97 -3 174 -7 170 -4 -4 -6 -38 -5
-77 3 -62 1 -68 -15 -63 -17 5 -17 5 0 -9 11 -9 17 -28 17 -53 0 -34 -3 -39
-24 -40 -25 -2 -25 -1 -24 82 0 68 4 84 17 87 14 4 14 5 -1 6 -14 1 -17 10
-16 46 0 25 4 45 9 45 5 0 9 -7 9 -15 0 -8 4 -15 10 -15 5 0 6 8 3 17 -5 12
-2 15 10 10 16 -6 17 9 17 163 l0 170 303 -2 302 -3 3 -82 3 -83 29 0 c23 0
30 -5 30 -20 0 -11 -5 -20 -11 -20 -6 0 -7 -5 -2 -12 11 -19 12 -67 1 -74 -6
-4 -5 -9 2 -14 18 -11 3 -30 -18 -24 -14 5 -14 3 2 -10 11 -9 23 -16 28 -16 4
0 8 96 8 214 0 182 -2 215 -15 218 -11 2 -6 17 23 65 20 35 41 63 45 63 4 0
14 -13 20 -30 12 -28 13 -28 25 -9 7 11 10 29 7 40 -7 21 10 27 18 7 3 -8 6
-6 6 5 1 12 -7 17 -29 17 -32 0 -38 14 -16 39 12 13 12 18 1 28 -11 10 -15 6
-24 -19z m-228 -164 c-7 -20 -20 -17 -26 5 -3 14 0 17 14 14 10 -3 15 -11 12
-19z m-372 -76 l2 -23 4 23 c5 26 18 28 32 5 10 -17 10 -17 11 0 0 15 11 17
85 17 74 0 85 -2 86 -17 1 -17 2 -17 6 0 6 24 43 22 43 -3 0 -11 5 -20 11 -20
6 0 9 9 6 20 -4 18 -1 19 36 17 35 -2 42 -6 42 -22 0 -19 -8 -20 -104 -23 -88
-3 -106 -1 -124 15 -19 17 -20 17 -14 1 4 -12 1 -18 -8 -18 -9 0 -12 6 -9 15
4 8 1 15 -5 15 -6 0 -11 -7 -11 -16 0 -14 -2 -15 -17 -3 -9 8 -14 9 -10 3 5
-9 -10 -12 -48 -13 -46 0 -55 3 -55 18 0 36 39 45 41 9z m-151 -254 c0 -62 -1
-64 -25 -64 -32 0 -33 27 -2 41 l22 10 -22 -5 c-15 -3 -23 1 -23 9 0 8 10 16
23 18 l22 4 -22 8 c-32 10 -30 43 2 43 24 0 25 -3 25 -64z m0 -89 c0 -5 -11
-11 -25 -11 -14 -1 -25 4 -25 11 0 7 11 12 25 11 14 0 25 -5 25 -11z m252
-500 c3 -15 1 -25 -6 -25 -6 0 -11 11 -11 25 0 14 3 25 6 25 4 0 9 -11 11 -25z
m56 0 c1 -20 -3 -25 -21 -24 -21 0 -21 1 -2 9 17 7 17 9 3 9 -24 1 -23 31 0
31 12 0 18 -8 20 -25z m92 0 c0 -19 -5 -25 -22 -24 -22 0 -22 1 -3 9 13 6 15
9 5 9 -13 1 -13 2 0 11 12 8 11 10 -7 10 -13 0 -23 -6 -23 -14 0 -8 -5 -18
-12 -22 -8 -5 -9 0 -6 14 4 12 2 20 -3 16 -5 -3 -9 0 -9 5 0 6 18 11 40 11 36
0 40 -2 40 -25z"/>
<path d="M1121 1644 c0 -11 3 -14 6 -6 3 7 2 16 -1 19 -3 4 -6 -2 -5 -13z"/>
<path d="M1140 1645 c0 -8 2 -15 4 -15 2 0 6 7 10 15 3 8 1 15 -4 15 -6 0 -10
-7 -10 -15z"/>
<path d="M1271 1644 c0 -11 3 -14 6 -6 3 7 2 16 -1 19 -3 4 -6 -2 -5 -13z"/>
<path d="M1295 1651 c-3 -5 -1 -12 5 -16 5 -3 10 1 10 9 0 18 -6 21 -15 7z"/>
<path d="M1147 1887 c-4 -10 -7 -26 -7 -35 1 -15 2 -15 11 1 6 10 9 25 7 35
-3 16 -4 15 -11 -1z"/>
<path d="M680 1804 c0 -10 5 -26 10 -34 8 -11 9 -7 4 15 -8 37 -14 45 -14 19z"/>
<path d="M1216 1775 c24 -39 24 -40 24 -28 0 6 -9 21 -21 34 l-20 24 17 -30z"/>
<path d="M857 1769 c7 -7 15 -10 18 -7 3 3 -2 9 -12 12 -14 6 -15 5 -6 -5z"/>
<path d="M634 1727 l-19 -22 23 19 c24 21 28 16 11 -17 -10 -21 -10 -21 5 -3
30 37 10 59 -20 23z"/>
<path d="M701 1740 c0 -8 4 -22 9 -30 12 -18 12 -2 0 25 -6 13 -9 15 -9 5z"/>
<path d="M851 1706 c2 -2 18 -6 34 -10 22 -5 26 -4 15 4 -14 9 -59 15 -49 6z"/>
<path d="M722 1650 c0 -19 2 -27 5 -17 2 9 2 25 0 35 -3 9 -5 1 -5 -18z"/>
<path d="M830 1555 l0 -44 116 -3 115 -3 25 43 c14 24 28 42 30 39 4 -4 -217
-394 -263 -463 -14 -22 -13 -24 9 -28 12 -3 41 -7 63 -9 26 -2 16 -5 -30 -7
l-70 -2 55 -8 c62 -9 208 -18 385 -26 66 -2 125 -7 132 -9 11 -3 23 15 23 36
0 5 -12 10 -27 10 -24 2 -25 2 -5 6 12 2 22 6 22 8 0 10 -73 125 -80 125 -4 0
-10 -9 -13 -20 -5 -20 -27 -28 -27 -10 0 6 -9 10 -20 10 -11 0 -20 -7 -20 -15
0 -21 -17 -19 -30 5 -10 19 -5 24 20 22 16 -2 6 37 -10 41 -29 7 -51 -14 -53
-53 -3 -42 -13 -60 -34 -60 -11 0 -14 7 -11 24 4 19 0 26 -16 30 -30 8 -36 7
-36 -4 0 -5 9 -10 21 -10 14 0 19 -5 17 -17 -4 -23 -38 -30 -38 -9 0 20 -5 20
-33 2 -12 -8 -51 -21 -87 -29 -36 -8 -74 -18 -85 -22 -18 -8 -18 -7 -7 8 8 9
35 24 60 33 26 10 56 25 67 35 21 19 71 35 95 31 9 -2 11 0 5 5 -25 20 -15 48
16 45 3 -1 4 10 2 23 -4 17 1 25 16 30 23 7 29 25 9 25 -7 0 -23 3 -35 6 -19
5 -21 3 -16 -17 4 -14 2 -20 -5 -15 -10 6 -8 164 3 174 2 2 20 6 39 9 25 3 36
1 37 -9 1 -7 3 -33 5 -58 4 -66 13 -132 19 -138 6 -7 35 18 35 31 0 6 7 18 16
28 14 16 11 26 -45 125 -34 59 -60 109 -57 111 2 2 16 -17 30 -42 23 -39 30
-44 46 -35 13 7 21 7 25 0 4 -6 10 -8 14 -6 4 3 41 6 83 7 76 2 76 2 82 32 12
60 31 57 -289 57 l-295 0 0 -45z m494 -446 c-8 -14 -24 -10 -24 6 0 9 6 12 15
9 8 -4 12 -10 9 -15z m-149 -10 c11 -5 58 -10 105 -12 47 -2 -5 -3 -115 -3
-110 0 -174 1 -142 3 37 3 57 8 57 16 0 15 62 12 95 -4z"/>
<path d="M1392 1400 c0 -14 2 -19 5 -12 2 6 2 18 0 25 -3 6 -5 1 -5 -13z"/>
<path d="M975 1390 c-11 -5 -35 -9 -53 -9 -18 -1 -46 -8 -62 -16 -29 -15 -30
-17 -30 -95 0 -78 1 -80 24 -80 23 0 38 18 81 95 6 11 24 41 39 68 15 26 26
47 24 46 -1 0 -12 -4 -23 -9z"/>
<path d="M1430 1389 c0 -5 5 -7 10 -4 6 3 10 8 10 11 0 2 -4 4 -10 4 -5 0 -10
-5 -10 -11z"/>
<path d="M1450 1364 c0 -8 5 -12 10 -9 6 3 10 10 10 16 0 5 -4 9 -10 9 -5 0
-10 -7 -10 -16z"/>
<path d="M1115 1360 c3 -5 12 -7 20 -3 21 7 19 13 -6 13 -11 0 -18 -4 -14 -10z"/>
<path d="M1290 1331 c0 -10 9 -29 20 -42 l19 -24 1 43 c0 35 -3 42 -20 42 -13
0 -20 -7 -20 -19z"/>
<path d="M1450 1330 c0 -5 5 -10 10 -10 6 0 10 5 10 10 0 6 -4 10 -10 10 -5 0
-10 -4 -10 -10z"/>
<path d="M1255 1300 c-4 -6 -1 -9 7 -8 8 2 12 -4 10 -14 -2 -13 4 -18 20 -19
21 0 21 -1 4 -8 -18 -7 -18 -8 -2 -14 33 -13 37 -7 19 24 -21 36 -49 54 -58
39z"/>
<path d="M1236 1271 c-3 -5 1 -11 9 -15 9 -3 15 0 15 9 0 16 -16 20 -24 6z"/>
<path d="M1363 1273 c9 -2 25 -2 35 0 9 3 1 5 -18 5 -19 0 -27 -2 -17 -5z"/>
<path d="M1450 1240 c0 -5 5 -10 10 -10 6 0 10 5 10 10 0 6 -4 10 -10 10 -5 0
-10 -4 -10 -10z"/>
<path d="M1358 1233 c12 -2 30 -2 40 0 9 3 -1 5 -23 4 -22 0 -30 -2 -17 -4z"/>
<path d="M1430 1214 c0 -8 5 -12 10 -9 6 4 8 11 5 16 -9 14 -15 11 -15 -7z"/>
<path d="M1388 1163 c7 -3 16 -2 19 1 4 3 -2 6 -13 5 -11 0 -14 -3 -6 -6z"/>
<path d="M497 1142 c-9 -10 -17 -26 -17 -34 0 -9 -7 -19 -16 -22 -8 -3 -13
-10 -9 -15 3 -6 12 -8 21 -4 8 3 13 8 10 11 -3 2 4 18 15 34 24 34 21 58 -4
30z"/>
<path d="M1727 1146 c-3 -8 1 -20 10 -27 8 -7 19 -23 24 -36 10 -26 29 -31 29
-8 0 8 -4 15 -10 15 -5 0 -10 8 -10 18 0 11 -8 27 -19 36 -16 14 -19 15 -24 2z"/>
<path d="M1395 1140 c3 -5 8 -10 11 -10 2 0 4 5 4 10 0 6 -5 10 -11 10 -5 0
-7 -4 -4 -10z"/>
<path d="M1450 1094 c0 -8 5 -12 10 -9 6 3 10 10 10 16 0 5 -4 9 -10 9 -5 0
-10 -7 -10 -16z"/>
<path d="M1704 1077 c3 -22 1 -23 -24 -14 -22 8 -32 6 -53 -9 -55 -40 -16 -81
59 -63 54 12 56 12 49 -12 -6 -18 -3 -20 22 -17 19 2 29 9 31 23 3 17 1 17 -7
5 -9 -13 -12 -11 -17 8 -4 12 -13 22 -21 22 -11 0 -13 7 -9 24 4 16 0 29 -13
40 -19 17 -19 17 -17 -7z m-18 -52 c18 -14 17 -14 -13 -15 -31 0 -49 11 -36
24 10 10 28 7 49 -9z"/>
<path d="M520 1075 c-6 -8 -9 -23 -6 -33 5 -14 1 -21 -15 -25 -11 -3 -18 -10
-15 -16 4 -5 2 -12 -4 -16 -5 -3 -10 -1 -10 5 0 6 -4 9 -10 5 -5 -3 -6 -12 -3
-21 8 -22 59 -15 55 9 -3 20 0 20 49 7 41 -12 89 1 89 23 0 7 -11 24 -25 37
-23 22 -34 23 -80 4 -17 -7 -18 -6 -7 8 8 9 9 19 4 22 -6 3 -15 -1 -22 -9z
m88 -53 c2 -8 -8 -12 -30 -12 -31 1 -32 1 -13 15 21 17 37 15 43 -3z"/>
<path d="M1431 1074 c0 -11 3 -14 6 -6 3 7 2 16 -1 19 -3 4 -6 -2 -5 -13z"/>
<path d="M428 1065 c-9 -10 14 -45 29 -45 7 0 13 7 13 15 0 8 -6 12 -14 9 -8
-3 -16 2 -18 11 -1 9 -6 14 -10 10z"/>
<path d="M1450 1060 c0 -5 5 -10 10 -10 6 0 10 5 10 10 0 6 -4 10 -10 10 -5 0
-10 -4 -10 -10z"/>
<path d="M1810 1054 c0 -8 5 -12 10 -9 6 4 8 11 5 16 -9 14 -15 11 -15 -7z"/>
<path d="M780 1050 c0 -5 5 -10 10 -10 6 0 10 5 10 10 0 6 -4 10 -10 10 -5 0
-10 -4 -10 -10z"/>
<path d="M1775 1040 c-3 -5 1 -13 10 -16 22 -9 29 1 11 15 -10 8 -16 9 -21 1z"/>
<path d="M1273 990 c-30 -28 -93 -44 -78 -20 3 6 -2 10 -12 11 -83 5 -116 3
-125 -8 -18 -22 -74 -15 -99 12 -30 31 -39 31 -39 0 0 -23 -4 -25 -46 -25
l-46 0 6 -32 c4 -18 16 -42 27 -53 18 -19 33 -20 264 -20 231 0 246 1 264 20
27 26 39 85 19 85 -8 0 -20 10 -26 23 l-11 22 -7 -22 c-6 -21 -24 -32 -24 -15
0 4 -8 17 -18 29 l-17 23 -32 -30z"/>
<path d="M452 525 c12 -25 25 -40 28 -34 9 14 -22 78 -37 79 -9 0 -6 -15 9
-45z"/>
<path d="M500 551 c-13 -25 -13 -41 0 -21 7 11 10 7 10 -17 0 -50 17 -39 22
12 3 48 -13 61 -32 26z"/>
<path d="M555 553 c13 -66 17 -73 33 -73 13 0 14 2 3 9 -9 6 -12 21 -9 45 3
29 1 36 -13 36 -11 0 -16 -6 -14 -17z"/>
<path d="M628 540 c2 -17 -1 -37 -8 -45 -8 -10 -9 -15 -1 -15 9 0 14 11 26 73
2 9 -2 17 -9 17 -8 0 -11 -11 -8 -30z"/>
<path d="M670 523 c4 -43 5 -44 8 -14 l3 34 29 -34 c18 -21 29 -28 29 -19 0
16 -53 80 -66 80 -5 0 -6 -21 -3 -47z"/>
<path d="M778 525 c2 -25 8 -45 12 -45 4 0 10 20 12 45 2 35 0 45 -12 45 -12
0 -14 -10 -12 -45z"/>
<path d="M836 549 c-15 -23 -9 -60 13 -67 8 -3 9 3 3 20 -10 25 -5 49 12 60 8
6 7 8 -1 8 -6 0 -19 -10 -27 -21z"/>
<path d="M895 560 c3 -5 8 -10 11 -10 2 0 4 5 4 10 0 6 -5 10 -11 10 -5 0 -7
-4 -4 -10z"/>
<path d="M938 525 c2 -25 8 -45 12 -45 4 0 10 20 12 45 2 35 0 45 -12 45 -12
0 -14 -10 -12 -45z"/>
<path d="M995 525 c0 -29 4 -45 12 -45 7 0 10 6 8 13 -3 6 5 17 17 22 35 15
30 49 -7 53 -29 3 -30 2 -30 -43z m43 18 c-5 -25 -28 -28 -28 -4 0 12 6 21 16
21 9 0 14 -7 12 -17z"/>
<path d="M1097 563 c-16 -27 -35 -83 -27 -83 4 0 12 14 15 31 l7 32 15 -32
c23 -46 35 -38 16 12 -19 50 -20 51 -26 40z"/>
<path d="M1168 525 c2 -25 8 -45 12 -45 4 0 10 20 12 45 2 35 0 45 -12 45 -12
0 -14 -10 -12 -45z"/>
<path d="M1248 525 c2 -25 8 -45 12 -45 4 0 10 20 12 45 2 35 0 45 -12 45 -12
0 -14 -10 -12 -45z"/>
<path d="M1308 525 c5 -56 22 -60 22 -4 0 33 3 40 18 37 21 -4 28 -44 12 -64
-7 -7 -8 -14 -3 -14 16 0 33 23 33 45 0 29 -19 45 -55 45 -30 0 -30 -1 -27
-45z"/>
<path d="M1436 555 c-3 -8 -1 -15 4 -15 4 0 11 -13 15 -30 4 -16 11 -30 16
-30 10 0 7 17 -12 68 -10 26 -15 27 -23 7z"/>
<path d="M1508 525 c2 -26 9 -45 16 -45 7 0 10 14 8 40 -4 35 -1 40 16 40 25
0 37 -32 22 -60 -13 -24 -7 -26 14 -4 33 32 6 74 -47 74 -32 0 -32 0 -29 -45z"/>
<path d="M1655 525 c0 -25 5 -45 10 -45 6 0 9 17 7 41 -4 38 -3 40 19 37 28
-4 38 -40 18 -64 -10 -12 -9 -13 5 -8 9 3 19 18 23 32 7 30 -17 52 -56 52 -24
0 -26 -3 -26 -45z"/>
<path d="M1765 525 c0 -27 5 -45 12 -45 6 0 9 9 5 22 -4 17 -2 20 15 16 12 -3
20 0 20 7 0 7 -8 10 -19 7 -12 -3 -18 1 -18 11 0 9 10 18 23 20 17 3 16 5 -8
6 -29 1 -30 0 -30 -44z"/>
<path d="M432 505 c0 -16 2 -22 5 -12 2 9 2 23 0 30 -3 6 -5 -1 -5 -18z"/>
<path d="M895 490 c-3 -5 -1 -10 4 -10 6 0 11 5 11 10 0 6 -2 10 -4 10 -3 0
-8 -4 -11 -10z"/>
<path d="M1215 490 c-3 -5 -1 -10 4 -10 6 0 11 5 11 10 0 6 -2 10 -4 10 -3 0
-8 -4 -11 -10z"/>
<path d="M1815 490 c-3 -5 -1 -10 4 -10 6 0 11 5 11 10 0 6 -2 10 -4 10 -3 0
-8 -4 -11 -10z"/>
<path d="M1304 449 c-9 -16 2 -22 21 -11 15 8 16 10 1 15 -8 3 -18 2 -22 -4z"/>
<path d="M420 345 c0 -51 3 -65 15 -65 8 0 15 9 15 20 0 14 7 20 23 20 29 0
47 18 47 45 0 31 -19 45 -62 45 l-38 0 0 -65z m67 34 c16 -16 5 -39 -18 -39
-14 0 -19 7 -19 25 0 26 18 33 37 14z"/>
<path d="M555 354 c-14 -31 -25 -60 -25 -65 0 -15 20 -10 26 6 4 9 19 15 35
15 17 0 32 -6 35 -15 5 -13 34 -22 34 -11 0 21 -56 126 -66 126 -8 0 -25 -25
-39 -56z m55 -16 c0 -5 -7 -8 -15 -8 -15 0 -20 21 -8 33 7 7 23 -11 23 -25z"/>
<path d="M696 394 c-26 -26 -18 -85 15 -103 30 -17 79 -8 79 14 0 18 -5 18
-31 4 -16 -8 -25 -7 -40 7 -23 21 -24 37 -3 59 12 11 25 14 46 9 23 -5 29 -3
26 7 -7 21 -72 23 -92 3z"/>
<path d="M820 345 c0 -51 3 -65 15 -65 9 0 15 9 15 25 0 21 5 25 30 25 25 0
30 -4 30 -25 0 -14 5 -25 10 -25 6 0 10 28 10 65 0 37 -4 65 -10 65 -5 0 -10
-11 -10 -25 0 -21 -5 -25 -30 -25 -25 0 -30 4 -30 25 0 16 -6 25 -15 25 -12 0
-15 -14 -15 -65z"/>
<path d="M980 348 c-17 -39 -24 -64 -17 -67 5 -2 16 4 22 13 15 20 64 21 71 1
4 -8 13 -15 21 -15 8 0 13 4 11 8 -1 4 -14 33 -27 65 -14 31 -31 57 -38 57 -8
0 -27 -28 -43 -62z m60 -10 c0 -5 -7 -8 -15 -8 -15 0 -20 21 -8 33 7 7 23 -11
23 -25z"/>
<path d="M1116 388 c-21 -30 -20 -50 5 -82 23 -29 69 -35 88 -13 15 18 3 29
-20 17 -24 -14 -48 -2 -55 26 -11 41 34 72 63 43 8 -8 13 -8 17 0 12 19 -4 31
-44 31 -29 0 -43 -6 -54 -22z"/>
<path d="M1262 348 c-16 -36 -24 -65 -19 -67 6 -2 16 4 22 13 15 20 64 21 71
1 5 -13 34 -22 34 -11 0 20 -56 126 -66 126 -8 0 -27 -28 -42 -62z m58 -10 c0
-5 -7 -8 -15 -8 -15 0 -20 21 -8 33 7 7 23 -11 23 -25z"/>
<path d="M1390 345 c0 -51 3 -65 15 -65 11 0 15 12 15 43 l1 42 20 -37 c11
-21 22 -38 24 -38 2 0 13 17 24 38 l20 37 1 -42 c0 -31 4 -43 15 -43 12 0 15
14 15 65 0 59 -2 65 -20 65 -13 0 -26 -12 -37 -35 l-17 -36 -18 36 c-12 22
-26 35 -38 35 -18 0 -20 -7 -20 -65z"/>
<path d="M1591 358 c-13 -29 -25 -59 -28 -65 -3 -7 2 -13 10 -13 8 0 17 7 21
15 3 9 18 15 35 15 16 0 31 -6 35 -15 3 -8 12 -15 20 -15 20 0 -34 124 -56
128 -10 2 -23 -15 -37 -50z m49 -14 c0 -8 -7 -14 -15 -14 -17 0 -18 2 -9 24 7
18 24 12 24 -10z"/>
<path d="M1727 392 c-35 -39 -6 -112 44 -112 28 0 61 19 54 31 -4 5 -13 5 -26
-1 -29 -16 -61 5 -57 37 4 35 32 52 58 36 13 -9 21 -9 26 -2 18 30 -73 40 -99
11z"/>
</g>
</svg>
